<?xml version="1.0" encoding="UTF-8"?>
<svg id="_레이어_1" data-name="레이어 1" xmlns="http://www.w3.org/2000/svg" viewBox="0 0 512 512">
  <defs>
    <style>
      .cls-1 {
        fill: #e36154;
      }
    </style>
  </defs>
  <path class="cls-1" d="M451.2,512h-104.39v-185.19c0-.77-2.21-3.18-1.43-5.01h-76.51s-99.39,190.19-99.39,190.19H60.8s1.11-19.62,1.11-19.62l104.75-195.53c-45.13-21.64-80.69-66.21-84.47-117.26C73.61,63.46,142.51,6.41,253.08,0l198.11.06v511.94ZM346.81,90.15h-96.53c-12.11,0-35.47,10.11-44.32,18.6-24.54,23.56-24.81,79.59-.78,103.72,8.8,8.83,34.3,20.68,46.53,20.68h95.1s0-143,0-143Z"/>
</svg>